<?xml version="1.0" standalone="no"?>
<!DOCTYPE svg PUBLIC "-//W3C//DTD SVG 20010904//EN"
 "http://www.w3.org/TR/2001/REC-SVG-20010904/DTD/svg10.dtd">
<svg version="1.0" xmlns="http://www.w3.org/2000/svg"
 width="1415.000000pt" height="1410.000000pt" viewBox="0 0 1415.000000 1410.000000"
 preserveAspectRatio="xMidYMid meet">

<g transform="translate(0.000000,1410.000000) scale(0.100000,-0.100000)"
fill="#000000" stroke="none">
<path d="M1031 14044 c9 -10 118 -141 242 -291 246 -295 289 -355 415 -573
119 -206 314 -609 377 -780 7 -19 22 -58 34 -87 l20 -52 -62 24 c-190 72 -261
100 -413 166 -427 182 -612 273 -786 386 -224 144 -373 268 -641 533 -232 228
-248 231 -119 20 89 -147 160 -237 268 -340 157 -150 267 -237 474 -372 363
-238 797 -462 1245 -643 l130 -53 23 -68 c105 -315 296 -1053 411 -1594 102
-479 219 -1172 257 -1519 l7 -63 -824 -824 -824 -824 528 -528 c290 -290 527
-534 527 -542 0 -32 -162 -546 -180 -571 -10 -15 -15 -30 -11 -35 4 -5 -68
-254 -160 -554 -93 -300 -168 -548 -169 -551 -1 -22 408 -299 700 -473 118
-71 216 -129 217 -130 4 -3 -140 -560 -182 -701 -116 -394 -347 -1058 -379
-1091 -6 -6 -94 -44 -196 -84 -575 -227 -894 -389 -1183 -600 -144 -105 -156
-117 -391 -385 -116 -132 -227 -258 -246 -279 -19 -22 -29 -36 -22 -32 7 4
140 114 295 243 306 256 350 288 567 415 294 171 650 337 997 463 l92 34 -18
-42 c-229 -529 -337 -729 -529 -976 -123 -157 -165 -205 -369 -411 -124 -126
-189 -200 -185 -207 8 -13 145 64 282 157 77 52 241 209 335 320 202 240 442
626 650 1047 l98 200 96 27 c914 261 1698 433 2545 561 223 34 708 94 819 102
l89 6 579 -579 579 -579 609 609 609 609 239 -17 c985 -70 1872 -228 2758
-490 201 -59 513 -162 665 -219 l61 -23 113 -230 c272 -552 556 -979 817
-1229 109 -104 156 -140 306 -231 124 -76 153 -88 153 -65 0 4 -50 57 -111
117 -390 383 -613 677 -782 1034 -73 155 -217 479 -217 491 0 15 467 -186 745
-321 343 -167 631 -385 978 -740 112 -115 158 -149 150 -112 -8 36 -185 303
-249 375 -191 217 -473 430 -878 661 -195 112 -546 289 -726 366 -69 29 -130
58 -136 64 -22 20 -195 512 -294 832 -95 307 -250 905 -250 962 0 14 42 45
148 112 303 192 742 502 742 525 0 7 -115 424 -255 925 -140 502 -255 917
-255 924 0 6 188 199 417 428 l418 418 -708 708 c-624 624 -707 711 -707 737
0 38 52 444 85 663 116 768 294 1589 509 2351 75 264 191 621 209 643 7 8 71
39 142 68 181 73 451 193 570 253 194 99 456 270 588 385 51 44 423 460 516
577 15 19 15 19 -4 4 -11 -9 -141 -117 -290 -240 -148 -124 -297 -243 -330
-265 -124 -84 -326 -200 -501 -289 -244 -123 -588 -274 -600 -263 -16 17 247
555 386 788 122 205 127 212 390 525 230 275 266 320 214 274 -16 -14 -144
-126 -284 -249 -194 -170 -272 -245 -325 -314 -212 -274 -325 -473 -508 -896
l-93 -214 -115 -39 c-334 -112 -1083 -308 -1612 -421 -621 -134 -1370 -254
-1931 -312 l-68 -7 -654 654 -654 654 -679 -679 -679 -679 -88 7 c-1106 85
-2098 280 -3065 602 l-197 66 -62 151 c-207 501 -317 721 -474 951 -156 231
-189 266 -465 509 -146 128 -276 241 -290 251 -26 20 -26 20 -10 0z m10949
-1938 c0 -1 -27 -75 -61 -162 -93 -243 -250 -720 -333 -1009 -177 -620 -310
-1237 -411 -1911 -19 -132 -37 -242 -38 -247 -1 -4 -571 562 -1267 1258 -718
718 -1257 1265 -1248 1265 80 0 768 108 1086 171 765 150 1600 383 2182 608
77 30 90 34 90 27z m-2413 -2576 l2442 -2445 -822 -820 -822 -821 -185 -96
c-774 -405 -1503 -621 -2375 -705 -224 -21 -881 -24 -1110 -5 -649 55 -1207
175 -1785 385 -352 127 -787 330 -1120 522 l-155 89 -728 726 -727 725 2457
2457 c2079 2079 2459 2455 2472 2445 9 -7 1115 -1112 2458 -2457z m-6581 2185
c745 -226 1471 -371 2358 -472 l69 -8 -813 -808 c-490 -487 -816 -805 -823
-800 -7 3 -9 2 -4 -2 9 -11 -63 -86 -75 -79 -5 3 -7 0 -6 -8 2 -7 -3 -12 -10
-10 -6 1 -11 -1 -10 -5 4 -13 -91 -105 -101 -99 -5 4 -13 1 -17 -5 -4 -8 -3
-9 4 -5 25 15 10 -9 -32 -50 -38 -39 -77 -61 -61 -35 3 5 0 13 -7 17 -7 4 -10
4 -6 -1 4 -4 3 -14 -3 -21 -7 -8 -6 -14 2 -20 8 -5 9 -3 4 6 -6 9 -4 11 5 5 9
-6 3 -17 -23 -41 -39 -37 -73 -48 -42 -14 10 11 22 17 28 13 6 -4 7 -1 2 7 -6
9 -4 11 5 5 8 -5 11 -4 7 3 -9 13 -30 10 -49 -6 -8 -6 -18 -10 -22 -7 -3 3 -2
0 4 -7 6 -8 6 -16 -1 -24 -7 -8 -6 -14 2 -20 8 -5 9 -3 4 6 -6 9 -4 11 4 6 9
-6 8 -13 -5 -27 -9 -11 -19 -17 -22 -14 -3 3 -11 -4 -19 -15 -16 -23 -30 -26
-30 -6 0 8 6 12 15 8 11 -4 14 -1 9 11 -4 12 -1 15 14 12 11 -2 17 0 15 4 -5
7 -49 7 -66 1 -3 -1 -23 -1 -46 0 -47 2 -61 -11 -67 -60 -3 -30 -4 -29 -5 12
-2 51 -10 80 -21 73 -9 -5 -24 54 -46 175 -35 199 -88 466 -121 620 -72 333
-231 944 -294 1124 -18 54 -20 83 -20 362 l0 302 48 -18 c27 -10 147 -48 268
-85z m424 -2429 c0 -2 -8 -10 -17 -17 -16 -13 -17 -12 -4 4 13 16 21 21 21 13z
m-253 -88 c-3 -8 -6 -5 -6 6 -1 11 2 17 5 13 3 -3 4 -12 1 -19z m158 2 c4 -6
1 -9 -6 -8 -15 3 -19 -21 -7 -38 5 -6 0 -18 -12 -29 -11 -10 -20 -14 -20 -10
0 5 -7 0 -16 -11 -15 -18 -15 -18 -5 2 6 12 8 24 6 28 -3 3 -2 4 2 1 11 -8 32
16 26 31 -3 8 0 21 7 29 15 18 17 18 25 5z m-113 -55 c3 -13 1 -22 -3 -19 -9
5 -13 44 -5 44 2 0 6 -11 8 -25z m33 -24 c3 -5 2 -12 -3 -15 -5 -3 -9 1 -9 9
0 17 3 19 12 6z m-11 -50 c3 -4 -4 -17 -16 -27 -13 -12 -18 -13 -12 -4 5 8 9
18 10 23 3 15 4 17 8 17 3 0 7 -4 10 -9z m8726 -3175 l122 -438 -24 -25 c-13
-14 -81 -76 -153 -137 -278 -241 -621 -480 -987 -690 -65 -37 -118 -69 -118
-71 0 -11 53 -95 61 -95 14 0 264 146 422 247 248 159 481 330 671 492 48 42
105 91 126 109 l39 33 20 -68 c11 -37 66 -232 121 -432 56 -200 104 -369 106
-375 9 -23 -553 -406 -898 -614 -1156 -693 -2240 -1061 -3468 -1177 -328 -30
-533 -38 -925 -32 -573 8 -978 51 -1535 163 -1080 216 -2187 659 -3145 1259
-153 95 -445 296 -445 306 0 9 290 952 294 956 2 2 64 -46 137 -107 191 -159
345 -273 574 -425 178 -118 452 -283 497 -300 12 -5 23 5 43 39 15 25 24 50
21 55 -3 5 -41 28 -84 52 -105 58 -342 205 -487 303 -280 189 -655 492 -655
528 0 16 258 859 265 866 3 3 46 -35 97 -84 243 -234 595 -496 978 -726 901
-542 1876 -871 2880 -972 513 -52 1120 -45 1595 18 1185 158 2267 634 3320
1460 124 97 382 313 390 327 4 6 11 7 15 2 4 -4 63 -205 130 -447z m-8491
-2563 c577 -258 1131 -450 1688 -585 95 -23 171 -44 169 -46 -2 -2 -92 -16
-199 -32 -856 -126 -1704 -328 -2497 -595 -90 -30 -168 -55 -172 -55 -4 0 7
33 23 73 145 350 326 895 439 1324 l43 162 180 -90 c98 -50 245 -120 326 -156z
m3676 -833 l290 0 -160 -160 c-88 -88 -164 -160 -170 -160 -12 0 -325 311
-325 324 0 5 17 6 38 2 20 -3 167 -6 327 -6z m4684 -336 c18 -42 30 -78 27
-81 -2 -3 -13 0 -23 5 -23 12 -311 115 -378 136 -49 14 -45 15 146 15 l196 1
32 -76z"/>
<path d="M6240 9934 c-64 -65 -199 -171 -317 -248 -57 -37 -103 -69 -103 -72
0 -2 18 -21 41 -41 109 -98 112 -180 33 -828 -20 -159 -37 -291 -38 -293 -2
-1 -45 120 -97 270 -226 663 -226 663 -244 666 -9 2 -21 0 -26 -5 -6 -6 61
-214 171 -534 99 -289 180 -538 179 -555 -2 -92 -21 -45 -208 503 -107 312
-197 571 -200 575 -6 6 -109 -7 -118 -15 -3 -4 -123 -964 -123 -996 -1 -14 -2
-14 -9 -1 -5 8 -63 175 -131 371 l-122 357 42 57 c40 54 41 57 23 70 -10 8
-21 15 -24 15 -3 0 -27 -30 -53 -66 l-49 -65 153 -441 c142 -410 151 -443 145
-489 -4 -28 -9 -48 -11 -46 -8 8 -334 959 -334 975 0 8 27 52 60 99 33 46 60
88 60 93 0 15 -33 12 -300 -28 -158 -24 -245 -41 -245 -49 0 -6 36 -39 80 -74
44 -34 83 -65 87 -68 9 -8 458 -1310 458 -1327 0 -7 -29 -49 -65 -93 -44 -54
-62 -83 -53 -86 7 -3 127 12 266 33 l252 38 21 -22 20 -22 -33 -5 c-18 -4
-130 -20 -248 -37 -118 -18 -219 -35 -223 -39 -4 -4 0 -17 10 -29 l18 -21 285
43 c214 32 284 46 282 56 -2 7 -50 65 -107 129 -84 95 -102 121 -99 141 3 14
24 189 49 388 24 200 45 366 47 368 2 1 62 -165 132 -371 l129 -375 -62 -79
c-33 -44 -61 -84 -61 -91 0 -8 14 -9 43 -5 23 3 140 21 260 39 210 31 218 32
234 14 9 -10 14 -21 11 -24 -3 -3 -111 -21 -239 -40 -129 -18 -240 -36 -248
-39 -12 -5 -9 -11 10 -29 l24 -24 260 39 c295 44 305 46 305 58 0 5 -52 66
-115 135 -67 74 -115 135 -115 146 0 32 98 836 126 1034 51 365 108 580 208
784 54 109 57 132 19 132 -15 0 -75 -117 -128 -249 -87 -218 -127 -437 -220
-1200 l-67 -543 39 -41 38 -41 -41 32 c-70 53 -73 83 -40 352 144 1187 163
1293 276 1549 21 49 53 114 70 145 53 93 23 116 -50 40z m-14 -106 c-84 -168
-135 -345 -181 -632 -30 -184 -30 -182 -60 -182 -23 0 -25 4 -25 46 1 25 5 90
9 146 12 142 -1 263 -33 318 -14 25 -38 54 -53 65 -14 12 -24 23 -22 25 2 2
51 35 109 73 109 72 237 172 279 217 14 14 25 26 26 26 1 0 -21 -46 -49 -102z
m-746 -675 c36 -109 65 -200 66 -203 0 -3 4 -12 7 -20 9 -19 100 -280 189
-540 76 -222 86 -246 98 -234 15 17 30 162 20 189 -13 33 -13 36 2 32 8 -1 17
42 29 131 10 73 21 141 24 152 7 24 28 26 45 5 12 -14 10 -27 -60 -615 -14
-114 6 -166 88 -238 35 -31 60 -57 56 -59 -20 -6 -417 -63 -420 -60 -2 1 22
34 52 73 l54 71 -21 59 c-11 32 -72 212 -135 399 -63 187 -118 347 -123 355
-5 8 -15 14 -21 12 -9 -2 -11 7 -8 30 5 32 -34 173 -53 192 -16 17 -29 -7 -34
-64 -8 -77 -61 -551 -88 -779 -28 -237 -26 -249 64 -331 l63 -57 -184 -25
c-229 -32 -236 -30 -180 50 l40 57 -105 314 c-95 282 -115 365 -85 346 5 -3
17 5 27 18 18 23 70 47 102 47 13 0 34 -49 86 -197 69 -199 79 -222 92 -210
12 13 29 163 21 192 -5 19 -3 32 6 39 7 6 18 55 25 111 7 55 24 181 38 280 14
99 25 188 26 197 1 13 7 16 22 12 19 -6 19 -6 1 8 -17 13 -18 23 -12 79 4 35
10 82 12 104 27 277 25 264 48 268 63 13 57 21 126 -190z m-96 -389 c15 -45
14 -63 -39 -491 -30 -244 -55 -456 -55 -471 0 -14 10 -37 23 -51 l22 -25 -31
25 c-62 47 -62 54 0 567 31 254 56 468 56 477 0 26 8 16 24 -31z m3 -396 c-3
-8 -6 -5 -6 6 -1 11 2 17 5 13 3 -3 4 -12 1 -19z m-10 -95 c-3 -10 -5 -4 -5
12 0 17 2 24 5 18 2 -7 2 -21 0 -30z m-10 -80 c-3 -10 -5 -4 -5 12 0 17 2 24
5 18 2 -7 2 -21 0 -30z m-10 -85 c-2 -13 -4 -5 -4 17 -1 22 1 32 4 23 2 -10 2
-28 0 -40z m-10 -80 c-2 -13 -4 -5 -4 17 -1 22 1 32 4 23 2 -10 2 -28 0 -40z
m-17 -145 l-11 -85 52 -62 52 -61 -57 56 -57 55 13 110 c7 60 14 101 16 91 2
-10 -1 -57 -8 -104z m812 -148 c17 -22 -4 -4 -46 40 -42 44 -85 94 -97 110
-26 38 101 -96 143 -150z m-175 -101 c-3 -3 -12 -4 -19 -1 -8 3 -5 6 6 6 11 1
17 -2 13 -5z m-64 -11 c-7 -2 -19 -2 -25 0 -7 3 -2 5 12 5 14 0 19 -2 13 -5z
m-70 -10 c-7 -2 -19 -2 -25 0 -7 3 -2 5 12 5 14 0 19 -2 13 -5z m-60 -10 c-7
-2 -21 -2 -30 0 -10 3 -4 5 12 5 17 0 24 -2 18 -5z m-70 -10 c-7 -2 -19 -2
-25 0 -7 3 -2 5 12 5 14 0 19 -2 13 -5z m-198 -23 c-3 -5 -14 -10 -23 -10 -15
0 -15 2 -2 10 20 13 33 13 25 0z m-78 -16 c-3 -3 -12 -4 -19 -1 -8 3 -5 6 6 6
11 1 17 -2 13 -5z m-130 -20 c-3 -3 -12 -4 -19 -1 -8 3 -5 6 6 6 11 1 17 -2
13 -5z"/>
<path d="M6962 9550 c-142 -20 -285 -74 -415 -155 -31 -20 -55 -41 -51 -46 3
-5 27 -20 54 -34 27 -14 51 -28 53 -32 3 -5 6 -150 8 -323 l4 -315 -65 -5 -65
-5 -19 -82 c-11 -46 -18 -85 -15 -87 3 -3 33 4 68 14 84 27 101 26 101 -3 0
-19 -8 -26 -42 -37 -62 -18 -98 -38 -98 -56 0 -25 26 -27 83 -6 l54 21 8 -210
7 -210 -23 -29 c-13 -16 -46 -54 -73 -85 -27 -31 -45 -59 -40 -63 5 -4 119 -5
254 -2 210 4 245 7 242 20 -1 8 11 -1 28 -19 22 -26 26 -37 17 -43 -6 -4 -116
-8 -244 -8 -145 0 -234 -4 -238 -10 -3 -6 -3 -19 0 -30 6 -19 15 -20 173 -20
226 0 422 11 422 23 0 6 -42 62 -94 126 l-94 116 -3 244 -4 244 60 17 c33 10
76 24 96 33 l36 15 12 -37 c81 -246 133 -455 176 -711 15 -85 30 -158 33 -162
4 -4 27 9 52 29 64 51 171 119 246 156 35 17 64 35 64 40 0 5 -25 37 -56 70
-120 133 -276 403 -369 641 -25 63 -45 118 -44 123 0 4 36 25 80 46 292 140
369 492 154 702 -119 116 -329 174 -533 145z m187 -131 c59 -18 130 -77 164
-137 l30 -53 -55 55 c-73 72 -131 91 -267 83 -53 -2 -104 -8 -114 -12 -18 -7
-19 -25 -16 -334 3 -289 2 -326 -12 -329 -14 -2 -17 23 -22 194 -4 109 -7 266
-7 351 l0 154 38 16 c79 33 176 38 261 12z m-516 -32 c-2 -4 0 -14 7 -22 16
-19 -17 -36 -56 -29 -44 8 -48 19 -15 40 30 20 74 27 64 11z m558 -96 c24 -13
65 -40 91 -62 26 -21 51 -39 57 -39 16 0 24 -65 17 -128 -9 -79 -56 -172 -114
-223 -50 -45 -155 -99 -238 -123 l-52 -14 -7 191 c-3 106 -5 241 -3 302 3 107
4 109 28 117 50 15 175 3 221 -21z m-113 -611 c13 0 21 4 18 9 -3 4 13 5 37 1
23 -5 45 -6 49 -4 18 11 45 -18 62 -68 21 -61 112 -284 127 -311 13 -25 4 -35
-26 -30 -13 3 -33 2 -42 -2 -34 -15 -44 -13 -52 8 -4 12 -34 98 -66 190 -57
167 -58 168 -84 161 -14 -3 -80 -19 -146 -33 l-120 -27 4 -151 c3 -130 1 -154
-13 -168 -9 -9 -16 -11 -16 -5 0 7 -26 10 -75 9 -42 -1 -78 0 -80 3 -3 3 -6
65 -6 137 l-1 132 -46 -2 c-26 -2 -61 -9 -79 -16 -43 -17 -42 -19 -32 29 11
47 28 83 29 59 0 -8 3 -11 7 -8 3 4 12 2 20 -5 10 -8 12 -8 8 4 -5 12 3 15 34
14 22 -1 38 0 37 2 -2 1 8 15 23 31 28 29 96 45 136 31 11 -4 23 -3 28 4 5 8
9 7 15 -2 6 -9 25 -11 63 -8 117 12 149 19 142 30 -3 6 0 5 8 -1 7 -7 24 -13
37 -13z m42 -106 c0 -17 -8 -27 -27 -35 -28 -10 -115 -33 -167 -44 l-29 -6 6
-275 c4 -208 9 -280 19 -293 7 -9 -1 -2 -18 16 l-31 33 -6 217 c-4 120 -7 252
-7 294 l0 76 93 16 c50 10 106 21 122 26 37 10 45 6 45 -25z m535 -693 l47
-54 -53 -28 c-30 -16 -57 -28 -61 -29 -5 0 -8 44 -8 97 0 83 2 95 14 83 7 -8
35 -39 61 -69z m-985 41 c-5 -10 -11 -28 -14 -42 -4 -17 -17 -30 -46 -42 -48
-21 -60 -22 -60 -5 0 19 45 59 55 50 4 -5 5 -3 1 4 -3 6 4 19 16 27 12 9 18
16 13 16 -6 0 -4 4 4 9 22 14 42 2 31 -17z m295 -52 c10 -11 16 -20 13 -20 -3
0 -13 9 -23 20 -10 11 -16 20 -13 20 3 0 13 -9 23 -20z"/>
<path d="M6675 8650 c3 -5 8 -10 11 -10 2 0 4 5 4 10 0 6 -5 10 -11 10 -5 0
-7 -4 -4 -10z"/>
<path d="M7577 9393 c-4 -6 7 -37 23 -69 77 -155 79 -317 4 -455 -36 -65 -122
-149 -200 -194 -36 -21 -67 -42 -70 -46 -7 -12 63 -194 126 -324 80 -164 164
-288 277 -406 l95 -99 -28 -10 c-68 -26 -213 -105 -294 -161 -109 -74 -115
-81 -92 -102 16 -14 24 -11 112 49 87 60 274 162 326 178 17 5 22 3 20 -11 -1
-14 9 -19 49 -25 70 -9 235 -10 235 0 0 4 -14 30 -30 57 -22 37 -30 63 -30 98
0 52 18 137 29 137 4 0 19 -25 34 -55 15 -30 31 -55 37 -55 5 0 9 -5 7 -12 -1
-6 5 -13 13 -15 9 -2 29 18 49 49 l35 53 17 -55 c25 -77 23 -92 -11 -125 -16
-16 -30 -32 -30 -37 0 -4 19 -9 43 -9 30 -2 34 -3 14 -6 -20 -3 -27 -9 -25
-21 3 -14 21 -18 103 -24 55 -4 176 -15 268 -24 92 -9 170 -14 173 -11 3 3
-11 36 -31 74 l-37 68 7 110 c3 61 9 124 12 140 7 35 9 27 58 -217 l28 -138
31 -1 31 -2 -28 -4 c-40 -6 -32 -37 9 -41 35 -3 24 -26 151 306 20 51 37 91
39 89 2 -2 -1 -66 -7 -143 l-10 -139 -36 -31 c-44 -38 -37 -53 25 -56 l47 -1
-43 -4 c-34 -3 -43 -8 -40 -21 3 -14 26 -19 136 -31 73 -8 135 -11 138 -8 4 3
-11 34 -32 69 l-38 62 20 287 21 287 29 25 c23 20 26 28 17 38 -10 10 -16 9
-30 -2 -17 -13 -17 -12 0 14 10 16 17 30 15 32 -5 4 -192 25 -227 25 -36 0
-39 -14 -11 -50 11 -14 20 -32 20 -40 0 -20 -122 -340 -130 -340 -3 0 -22 79
-42 175 l-35 175 28 21 c51 36 31 67 -21 32 l-25 -16 24 26 c14 15 22 29 19
32 -8 9 -253 33 -261 26 -4 -4 6 -25 23 -48 l30 -41 -19 -264 c-11 -145 -25
-277 -31 -293 -14 -37 -37 -63 -72 -81 -26 -14 -29 -13 -62 23 -27 30 -40 60
-65 150 -17 63 -31 117 -31 122 0 5 20 6 45 3 25 -2 45 -3 45 0 0 13 -53 155
-62 165 -6 7 -14 11 -18 8 -5 -3 -10 1 -13 7 -3 10 -9 10 -25 1 -23 -14 -23
-14 -58 114 l-17 63 26 34 c26 33 24 50 -8 56 -5 2 -14 4 -20 5 -26 8 -225 13
-229 6 -3 -4 6 -24 19 -44 l25 -35 -32 -91 c-29 -83 -33 -90 -48 -76 -32 29
-39 23 -87 -78 l-22 -47 34 -15 c19 -7 35 -21 35 -29 0 -47 -86 -229 -126
-267 l-24 -22 -104 104 c-111 111 -197 232 -272 382 -53 105 -100 221 -109
268 -5 33 -3 35 46 64 78 45 169 141 207 217 64 131 66 302 3 433 -34 71 -75
123 -84 108z m1712 -989 c3 -2 -6 -16 -20 -30 -23 -25 -25 -36 -45 -327 -18
-267 -19 -305 -6 -325 8 -12 13 -24 11 -26 -2 -1 -37 -1 -77 2 l-73 4 25 27
c25 26 27 36 41 217 8 104 15 198 15 209 0 11 3 49 6 84 5 49 4 63 -6 59 -13
-4 -18 -16 -150 -360 -46 -120 -87 -218 -91 -218 -5 0 -9 3 -9 6 0 3 -22 116
-49 252 -27 136 -52 268 -56 295 -7 46 -7 47 19 47 15 0 29 -6 31 -13 3 -6 25
-103 49 -215 23 -111 46 -205 50 -209 11 -11 15 -2 111 248 89 231 89 231 72
261 l-17 30 82 -7 c46 -4 85 -9 87 -11z m-1158 -155 c-5 -13 -10 -19 -10 -12
-1 15 10 45 15 40 3 -2 0 -15 -5 -28z m184 1 c6 0 16 -18 23 -40 15 -44 20
-47 62 -25 27 14 28 14 39 -15 9 -28 8 -30 -13 -30 -12 0 -30 -6 -39 -12 -16
-12 -14 -24 26 -166 30 -104 51 -160 68 -179 l24 -26 -34 7 c-18 3 -58 6 -89
6 l-55 0 23 25 23 25 -29 106 c-16 58 -32 111 -35 116 -9 15 -24 3 -69 -53
l-39 -49 -47 80 c-27 44 -53 79 -59 77 -12 -4 -52 -122 -61 -182 -4 -32 -1
-55 15 -90 l21 -48 -67 7 c-38 4 -72 11 -77 16 -5 5 4 24 22 45 40 45 62 89
97 194 l29 84 -22 18 c-12 9 -27 19 -34 21 -7 3 -6 12 4 31 l14 28 19 -21 c23
-26 42 -26 50 1 11 33 16 16 5 -20 -8 -29 -4 -40 38 -106 26 -41 49 -74 52
-74 3 -1 25 22 49 50 l44 52 -13 61 c-7 33 -15 74 -18 90 -4 28 -4 28 19 13
13 -9 29 -16 34 -17z m-67 -66 c18 -67 18 -71 2 -91 l-17 -22 -27 40 c-14 23
-26 46 -26 52 0 24 34 107 41 100 4 -5 16 -40 27 -79z m499 -31 c-2 -16 -4 -3
-4 27 0 30 2 43 4 28 2 -16 2 -40 0 -55z m-12 -192 c-6 -128 -5 -154 9 -182 9
-18 14 -34 12 -37 -3 -2 -31 -1 -62 3 l-56 7 30 31 c36 38 48 82 58 225 3 56
9 102 11 102 3 0 2 -67 -2 -149z m-672 -208 c-24 -2 -62 -2 -85 0 -24 2 -5 4
42 4 47 0 66 -2 43 -4z m450 -20 c-18 -2 -48 -2 -65 0 -18 2 -4 4 32 4 36 0
50 -2 33 -4z m135 -10 c-10 -2 -26 -2 -35 0 -10 3 -2 5 17 5 19 0 27 -2 18 -5z
m95 -10 c-13 -2 -35 -2 -50 0 -16 2 -5 4 22 4 28 0 40 -2 28 -4z m54 -9 c-3
-3 -12 -4 -19 -1 -8 3 -5 6 6 6 11 1 17 -2 13 -5z m416 -41 c-13 -2 -33 -2
-45 0 -13 2 -3 4 22 4 25 0 35 -2 23 -4z"/>
<path d="M9589 8356 c-121 -43 -195 -177 -206 -376 -7 -117 12 -202 62 -277
19 -29 35 -59 35 -67 0 -16 48 -59 94 -83 47 -25 151 -23 202 4 50 27 106 87
137 150 62 122 78 329 36 455 -23 72 -82 153 -105 144 -7 -3 -24 4 -39 16 -31
24 -106 48 -149 48 -17 -1 -47 -7 -67 -14z m166 -35 c110 -49 167 -205 146
-391 -13 -111 -35 -177 -80 -235 -46 -61 -91 -85 -159 -85 -177 0 -286 179
-253 415 21 150 75 250 160 295 47 25 133 26 186 1z m182 -368 c-2 -21 -4 -4
-4 37 0 41 2 58 4 38 2 -21 2 -55 0 -75z m-10 -87 c-11 -74 -46 -153 -94 -206
-44 -50 -89 -80 -115 -80 -7 0 5 9 27 19 82 37 156 153 172 267 3 24 8 44 11
44 2 0 2 -20 -1 -44z m-244 -293 c-7 -2 -21 -2 -30 0 -10 3 -4 5 12 5 17 0 24
-2 18 -5z"/>
<path d="M9614 8301 c-65 -40 -103 -124 -125 -279 -33 -239 26 -392 151 -392
105 0 170 135 186 388 11 156 -21 253 -93 287 -42 20 -82 19 -119 -4z m110
-19 c2 -4 -12 -6 -32 -4 -53 4 -94 -26 -125 -90 -15 -29 -26 -47 -27 -40 0 23
49 110 72 126 23 16 103 22 112 8z m36 -73 l43 -31 -6 -152 c-7 -207 -47 -329
-119 -364 -44 -21 -72 -7 -99 50 -21 46 -24 65 -24 182 0 284 79 406 205 315z
m-229 -125 c-5 -21 -9 -30 -10 -19 -1 24 10 67 15 62 3 -2 0 -22 -5 -43z m-14
-96 c-2 -13 -4 -5 -4 17 -1 22 1 32 4 23 2 -10 2 -28 0 -40z m-10 -125 c-2
-16 -4 -5 -4 22 0 28 2 40 4 28 2 -13 2 -35 0 -50z"/>
<path d="M10170 8249 c-36 -15 -69 -48 -93 -94 -22 -42 -27 -116 -15 -225 6
-48 12 -60 46 -90 21 -19 79 -57 127 -84 54 -31 94 -60 104 -78 9 -15 19 -28
24 -28 12 0 8 -39 -8 -70 -20 -38 -43 -50 -100 -50 -40 0 -50 5 -81 38 -32 34
-44 62 -59 136 -5 22 -10 27 -25 23 -15 -4 -20 0 -20 13 0 33 -20 32 -38 -1
-9 -18 -36 -61 -59 -96 -35 -53 -41 -69 -36 -98 5 -31 9 -35 37 -35 17 0 73
-21 126 -47 78 -40 105 -48 162 -51 54 -3 76 0 113 18 121 59 181 224 123 340
-13 25 -28 45 -34 45 -6 0 -30 18 -52 41 -23 22 -68 55 -101 72 -64 35 -101
86 -101 142 0 35 31 70 60 70 33 0 77 -27 97 -60 9 -16 21 -30 25 -30 4 0 8
-13 8 -28 0 -20 7 -33 25 -42 14 -7 27 -11 29 -9 12 12 106 161 106 168 0 18
-39 41 -69 41 -18 0 -64 17 -104 37 -77 40 -167 53 -217 32z m226 -66 c44 -21
81 -39 82 -40 2 -1 -9 -23 -24 -49 l-28 -48 -7 30 c-21 107 -143 173 -222 121
-35 -23 -60 -82 -54 -128 8 -59 41 -95 142 -154 104 -61 148 -107 164 -168 5
-23 8 -43 7 -45 -10 -10 -71 -3 -74 8 -11 32 -78 91 -142 124 -129 68 -163
112 -162 209 1 69 30 137 70 163 62 41 128 35 248 -23z m-136 -3 c-19 -5 -47
-22 -62 -39 -30 -34 -38 -29 -12 7 19 27 48 41 84 40 19 0 17 -2 -10 -8z
m-186 -569 c22 -41 80 -88 123 -100 48 -14 120 -14 128 -1 4 6 10 8 15 5 5 -3
16 5 24 17 9 12 16 18 16 12 0 -6 -12 -21 -26 -35 -21 -19 -36 -24 -83 -24
-50 0 -72 8 -162 53 -57 29 -112 52 -121 52 -14 0 -10 11 20 58 l37 59 7 -34
c4 -19 14 -46 22 -62z m360 -4 c7 -6 5 -7 -5 -4 -9 3 -22 0 -28 -6 -7 -7 -6 1
2 22 9 25 13 28 16 15 2 -11 8 -23 15 -27z m-405 -56 c10 -6 -1 -8 -30 -4 -24
3 -46 7 -48 9 -10 9 65 3 78 -5z m365 -62 c-9 -15 -69 -39 -96 -38 -13 0 -1 6
25 13 27 7 53 18 60 25 14 14 20 14 11 0z m-199 -19 c13 -6 15 -9 5 -9 -8 0
-22 4 -30 9 -18 12 -2 12 25 0z m58 -17 c-7 -2 -19 -2 -25 0 -7 3 -2 5 12 5
14 0 19 -2 13 -5z"/>
<path d="M8413 7088 c-20 -22 -43 -61 -43 -72 0 -3 14 -6 31 -6 30 0 108 48
139 85 11 13 5 15 -47 15 -49 0 -63 -4 -80 -22z"/>
<path d="M4752 6968 c-21 -6 -36 -18 -42 -34 -6 -14 -10 -131 -10 -260 0 -221
1 -235 20 -254 23 -23 58 -26 86 -6 17 13 19 31 24 193 l5 178 143 -181 c78
-100 154 -186 168 -193 36 -16 68 -14 93 7 22 17 22 22 21 272 -1 284 -1 287
-70 281 -42 -4 -45 -13 -50 -203 l-5 -182 -149 186 c-95 119 -158 190 -175
196 -15 5 -40 5 -59 0z"/>
<path d="M6208 6969 c-77 -11 -119 -30 -172 -79 -58 -54 -81 -113 -81 -206 1
-130 75 -230 198 -266 64 -19 213 -16 273 5 63 22 128 76 157 131 18 33 22 58
22 131 0 78 -4 98 -26 140 -56 110 -203 167 -371 144z m167 -103 c18 -8 45
-31 61 -51 23 -31 29 -50 32 -105 5 -83 -8 -127 -51 -167 -79 -74 -222 -68
-285 12 -47 60 -54 167 -15 241 42 82 156 112 258 70z"/>
<path d="M8430 6972 c-14 -2 -34 -11 -44 -20 -18 -16 -186 -353 -227 -455 -23
-57 -14 -82 30 -92 43 -9 63 6 96 74 l29 61 137 0 138 0 33 -62 c40 -77 73
-94 116 -61 18 14 26 28 24 44 -3 30 -225 484 -241 493 -21 13 -65 22 -91 18z
m70 -222 c23 -52 44 -101 47 -107 4 -10 -19 -13 -95 -13 l-101 0 40 91 c44
103 59 132 63 127 2 -1 22 -46 46 -98z"/>
<path d="M9985 6970 c-194 -28 -297 -187 -245 -376 10 -36 28 -63 69 -105 68
-67 117 -84 246 -83 77 0 98 4 148 28 66 32 107 79 114 134 6 46 -12 65 -58
60 -27 -2 -38 -11 -59 -48 -67 -117 -254 -120 -314 -5 -47 90 -17 239 59 284
83 51 169 35 243 -44 52 -56 75 -65 113 -45 24 14 25 56 1 93 -53 80 -188 125
-317 107z"/>
<path d="M10680 6969 c-19 -4 -42 -17 -50 -30 -34 -50 -222 -456 -223 -483 -2
-22 4 -33 24 -44 45 -26 74 -10 110 63 l32 65 138 0 138 0 21 -47 c26 -59 57
-93 85 -93 31 0 65 28 65 54 0 20 -198 437 -231 485 -18 27 -64 40 -109 30z
m84 -236 l45 -103 -100 0 -99 0 14 33 c7 17 28 67 46 110 18 43 37 74 41 70 4
-4 28 -54 53 -110z"/>
<path d="M4427 6952 c-15 -16 -17 -47 -17 -263 0 -268 1 -274 57 -285 26 -5
37 -1 57 19 l26 26 0 233 c0 269 -3 281 -66 286 -29 2 -45 -2 -57 -16z"/>
<path d="M5463 6963 c-49 -10 -53 -30 -53 -281 l0 -233 26 -26 c20 -20 31 -24
57 -19 17 4 36 11 42 17 5 5 12 59 13 119 l4 110 113 0 c134 0 165 9 165 45 0
36 -31 45 -166 45 l-114 0 0 70 0 70 146 0 c150 0 184 7 184 39 0 41 -24 46
-214 48 -100 0 -191 -1 -203 -4z"/>
<path d="M6776 6960 c-16 -5 -33 -15 -37 -22 -5 -7 -9 -122 -9 -255 0 -230 1
-244 20 -263 25 -25 61 -26 89 -2 18 15 21 29 23 122 l3 105 38 3 c65 5 114
-27 186 -124 96 -127 131 -147 182 -105 l24 20 -29 55 c-16 32 -54 80 -87 111
-33 29 -59 56 -59 58 0 3 16 8 35 11 45 9 101 57 115 101 23 69 -15 137 -95
171 -47 19 -350 30 -399 14z m324 -95 c16 -9 32 -26 36 -39 17 -69 -32 -96
-175 -96 l-101 0 0 75 0 75 105 0 c75 0 115 -4 135 -15z"/>
<path d="M7446 6960 c-16 -5 -33 -15 -37 -22 -5 -7 -9 -122 -9 -255 0 -230 1
-244 20 -263 25 -25 51 -25 81 -1 23 19 24 24 29 211 l5 192 44 -148 c65 -219
77 -249 107 -262 56 -26 98 -5 122 62 11 28 38 116 62 196 24 80 47 149 52
155 4 5 8 -81 8 -191 0 -182 2 -202 18 -217 25 -23 58 -21 82 3 19 19 20 33
20 264 0 200 -3 247 -15 259 -31 32 -160 32 -187 0 -6 -8 -37 -91 -68 -185
l-56 -171 -52 166 c-29 91 -60 175 -70 186 -20 24 -109 36 -156 21z"/>
<path d="M8842 6963 c-29 -6 -46 -37 -33 -62 12 -22 51 -31 142 -31 l69 0 0
-215 c0 -202 1 -216 20 -235 25 -25 61 -26 91 -1 24 19 24 22 27 234 l3 215
89 4 c91 4 120 16 120 48 0 41 -22 45 -269 46 -130 1 -246 0 -259 -3z"/>
<path d="M9475 6946 c-14 -21 -16 -60 -13 -271 3 -231 4 -248 22 -261 29 -21
64 -17 91 11 l25 24 0 238 c0 274 -2 283 -70 283 -31 0 -43 -5 -55 -24z"/>
<path d="M3523 9393 c4 -3 1 -13 -6 -22 -11 -14 -10 -14 5 -2 16 12 16 31 1
31 -4 0 -3 -3 0 -7z"/>
<path d="M3182 9245 c0 -16 2 -22 5 -12 2 9 2 23 0 30 -3 6 -5 -1 -5 -18z"/>
<path d="M3279 9133 c-13 -16 -12 -17 4 -4 16 13 21 21 13 21 -2 0 -10 -8 -17
-17z"/>
<path d="M3893 4896 c-10 -13 -38 -61 -62 -108 l-45 -85 41 -199 42 -199 -47
-87 -46 -86 -78 39 c-43 22 -78 41 -78 42 0 2 22 44 48 94 l49 91 -29 17 c-16
9 -34 15 -41 12 -7 -3 -37 -52 -67 -110 -49 -95 -53 -107 -42 -128 16 -30 216
-139 253 -139 33 0 48 20 114 149 l48 93 -41 197 -41 198 40 76 c22 43 42 77
44 77 2 0 38 -18 79 -41 l77 -41 -46 -83 -45 -83 34 -20 c42 -25 38 -28 99 94
58 116 57 120 -83 196 -116 64 -149 70 -177 34z"/>
<path d="M10249 4619 c-136 -82 -140 -90 -89 -169 49 -76 55 -79 191 -97 129
-17 143 -22 172 -72 l18 -30 -56 -36 c-31 -19 -60 -33 -65 -30 -6 3 -21 26
-36 50 l-25 44 -34 -21 -33 -22 26 -41 c52 -84 63 -95 90 -95 16 0 66 26 120
60 74 49 92 65 92 84 0 29 -65 143 -89 155 -9 5 -74 16 -146 25 -71 10 -133
22 -138 29 -39 58 -38 60 24 99 l59 37 26 -44 c27 -46 37 -48 81 -13 21 17
-65 138 -98 138 -3 0 -44 -23 -90 -51z"/>
<path d="M4216 4600 c-9 -22 -16 -42 -16 -45 0 -6 61 -37 65 -33 1 2 12 21 23
44 l21 41 -35 16 c-19 10 -36 17 -38 17 -2 0 -11 -18 -20 -40z"/>
<path d="M9905 4437 c-83 -43 -100 -56 -103 -78 -4 -38 191 -426 222 -440 20
-10 38 -4 127 42 56 30 107 61 113 70 7 12 3 32 -13 70 -13 30 -27 58 -31 62
-7 8 -70 -18 -70 -29 0 -2 9 -22 19 -43 l20 -37 -66 -33 c-36 -17 -67 -31 -68
-29 -12 14 -75 152 -73 159 2 5 41 29 88 52 63 31 86 48 88 64 3 22 -67 174
-96 206 -23 26 -49 21 -157 -36z m143 -92 l32 -65 -69 -34 -68 -35 -31 70 -31
69 57 30 c31 16 62 29 67 30 6 0 25 -29 43 -65z"/>
<path d="M9563 4455 l-33 -14 26 -68 c14 -37 28 -71 30 -75 3 -5 -8 -13 -25
-19 -17 -6 -31 -12 -31 -13 0 -2 5 -17 11 -35 9 -24 16 -31 28 -25 45 18 44
20 121 -182 50 -133 81 -201 96 -210 18 -12 28 -11 77 5 78 27 77 27 65 61
-11 34 -16 35 -64 15 -33 -14 -35 -13 -43 8 -5 12 -36 93 -70 181 -33 87 -59
162 -56 166 3 5 21 14 40 20 38 13 40 17 24 54 -11 24 -12 24 -52 10 -22 -8
-44 -11 -47 -7 -4 5 -17 36 -30 71 -12 34 -25 64 -29 66 -3 2 -21 -2 -38 -9z"/>
<path d="M4132 4413 c-44 -87 -202 -432 -202 -441 0 -10 58 -37 65 -30 4 4
137 287 196 415 l28 63 -29 15 c-38 20 -37 20 -58 -22z"/>
<path d="M4706 4392 c-2 -4 -13 -38 -26 -75 -22 -68 -22 -69 -54 -63 -28 5
-33 3 -43 -25 -11 -29 -10 -31 18 -41 16 -5 29 -13 29 -18 0 -4 -27 -91 -60
-193 -33 -101 -60 -196 -60 -209 0 -32 23 -51 84 -72 54 -17 61 -15 71 26 6
24 3 28 -34 39 -23 7 -41 14 -41 17 0 12 113 358 120 365 4 5 24 1 45 -7 21
-9 39 -15 40 -14 1 2 7 17 13 35 10 31 10 32 -26 44 -20 6 -40 13 -44 15 -4 3
4 37 18 76 13 39 24 74 24 78 0 9 -69 30 -74 22z"/>
<path d="M4297 4343 c-21 -24 -57 -109 -57 -137 0 -12 27 -74 60 -138 l60
-115 -20 -46 -21 -46 -47 20 c-26 12 -54 24 -64 27 -15 6 -14 12 7 62 l24 55
-27 12 c-15 7 -32 12 -38 13 -12 0 -64 -118 -64 -144 0 -23 44 -52 141 -90
112 -45 121 -41 163 64 l29 72 -65 127 -66 126 16 35 c9 19 17 36 18 38 1 2
31 -9 67 -24 l66 -27 -20 -40 c-24 -46 -20 -61 19 -75 29 -10 29 -10 55 54 38
90 30 102 -94 153 -113 46 -120 48 -142 24z"/>
<path d="M8078 4232 c-34 -3 -37 -5 -33 -30 3 -15 28 -191 55 -392 66 -478 56
-430 96 -430 18 0 35 3 37 8 5 7 -96 744 -110 812 -8 33 -10 35 -45 32z m35
-89 c-7 -2 -19 -2 -25 0 -7 3 -2 5 12 5 14 0 19 -2 13 -5z m17 -93 c0 -5 -11
-10 -25 -10 -14 0 -25 5 -25 10 0 6 11 10 25 10 14 0 25 -4 25 -10z m23 -247
c-7 -2 -21 -2 -30 0 -10 3 -4 5 12 5 17 0 24 -2 18 -5z"/>
<path d="M9409 4225 c-19 -7 -55 -23 -78 -35 -24 -12 -61 -23 -83 -24 -22 -2
-43 -7 -47 -12 -7 -7 111 -391 152 -496 5 -15 11 -16 39 -6 18 6 34 12 36 13
2 2 -27 97 -64 211 -36 115 -67 213 -68 218 -1 9 105 54 130 55 6 1 39 -88 73
-196 86 -270 73 -243 115 -231 20 6 36 14 36 17 0 4 -33 110 -74 236 -53 166
-80 234 -96 247 -26 21 -24 21 -71 3z m-89 -321 c0 -9 -7 -14 -17 -12 -25 5
-28 28 -4 28 12 0 21 -6 21 -16z"/>
<path d="M6837 3923 c-4 -137 -7 -330 -7 -430 l0 -183 38 0 39 0 6 272 c4 149
7 343 7 430 l0 158 -38 0 -39 0 -6 -247z m71 210 c2 -9 -7 -13 -27 -13 -21 0
-31 5 -31 16 0 19 51 16 58 -3z m-8 -63 c0 -5 -11 -10 -25 -10 -14 0 -25 5
-25 10 0 6 11 10 25 10 14 0 25 -4 25 -10z m-13 -206 c-3 -3 -12 -4 -19 -1 -8
3 -5 6 6 6 11 1 17 -2 13 -5z m8 -214 c4 -6 -5 -10 -19 -10 -14 0 -26 5 -26
10 0 6 9 10 19 10 11 0 23 -4 26 -10z"/>
<path d="M8270 4150 c-34 -5 -35 -6 -32 -45 4 -52 13 -59 54 -49 l34 9 -10 45
c-11 44 -12 45 -46 40z"/>
<path d="M4877 4123 c-8 -16 -40 -121 -72 -236 l-59 -207 20 -21 c12 -11 67
-34 124 -50 127 -38 139 -34 165 52 10 33 16 61 13 64 -3 3 -19 10 -37 15 -31
8 -31 8 -42 -36 -13 -50 -17 -51 -99 -25 -44 14 -54 21 -52 37 7 43 43 154 50
154 4 0 47 -11 95 -25 63 -19 92 -23 106 -16 19 11 71 173 71 223 0 35 -12 43
-117 72 -121 34 -149 34 -166 -1z m131 -59 c32 -9 61 -20 65 -24 5 -4 0 -37
-9 -74 -20 -74 -20 -74 -104 -47 -44 14 -54 21 -52 37 6 36 33 124 39 124 3 0
30 -7 61 -16z m49 -220 c-3 -3 -12 -4 -19 -1 -8 3 -5 6 6 6 11 1 17 -2 13 -5z
m-203 -13 c4 -5 0 -11 -6 -14 -19 -6 -49 4 -42 14 7 12 41 12 48 0z m-37 -97
c-3 -3 -12 -4 -19 -1 -8 3 -5 6 6 6 11 1 17 -2 13 -5z m186 -85 c28 1 38 -2
35 -11 -3 -8 -18 -12 -39 -11 -19 2 -48 3 -65 3 -21 0 -31 4 -31 15 0 13 7 14
31 9 17 -4 48 -6 69 -5z"/>
<path d="M8975 4082 c-55 -15 -106 -31 -112 -35 -7 -5 -13 -22 -13 -38 0 -38
97 -424 113 -449 15 -26 41 -25 157 5 122 31 133 43 114 122 -7 32 -13 61 -14
64 0 4 -18 2 -39 -3 -38 -10 -39 -11 -30 -41 14 -48 11 -67 -8 -67 -16 0 -16
-2 -3 -11 12 -9 12 -10 -4 -5 -27 9 -92 -4 -74 -15 10 -7 10 -9 -2 -9 -8 0
-20 4 -27 8 -12 8 -57 171 -49 179 2 2 30 11 63 19 32 9 74 20 94 25 21 5 40
16 43 25 8 21 -42 215 -61 237 -20 22 -27 21 -148 -11z m153 -30 c4 -14 -39
-17 -53 -3 -6 5 -28 12 -50 14 -22 3 -9 4 29 3 45 -1 71 -6 74 -14z m-80 -9
c-10 -2 -28 -2 -40 0 -13 2 -5 4 17 4 22 1 32 -1 23 -4z m32 -50 c5 -21 13
-54 16 -74 l6 -35 -59 -13 c-32 -8 -63 -15 -69 -18 -12 -4 -51 133 -41 143 7
7 97 32 119 33 11 1 21 -11 28 -36z m53 10 c-7 -2 -21 -2 -30 0 -10 3 -4 5 12
5 17 0 24 -2 18 -5z m-212 -77 c-10 -11 -8 -17 6 -25 15 -9 13 -10 -14 -11
-37 0 -40 6 -15 31 20 21 40 25 23 5z m237 -13 c-10 -2 -26 -2 -35 0 -10 3 -2
5 17 5 19 0 27 -2 18 -5z m62 -214 c0 -12 -47 -12 -54 0 -4 5 0 11 6 14 18 5
48 -3 48 -14z m-227 -46 c-7 -2 -21 -2 -30 0 -10 3 -4 5 12 5 17 0 24 -2 18
-5z m12 -43 c4 -6 -6 -10 -22 -9 -25 0 -26 1 -8 9 11 5 21 9 22 9 1 1 5 -3 8
-9z"/>
<path d="M5256 4051 c-10 -16 -109 -511 -104 -517 4 -3 21 -7 39 -7 l32 -2 42
195 c56 263 52 249 72 244 10 -2 43 -8 74 -14 l55 -11 -48 -226 c-26 -124 -47
-227 -46 -228 9 -7 78 -15 78 -9 0 10 91 438 94 441 4 5 131 -19 138 -26 4 -4
-13 -105 -39 -224 -27 -128 -42 -222 -37 -227 5 -5 22 -10 38 -12 l29 -3 48
225 c52 243 57 281 35 299 -8 7 -59 17 -113 23 -54 6 -105 17 -114 25 -9 7
-56 18 -104 24 -49 5 -94 13 -99 18 -14 11 -66 20 -70 12z m221 -347 c-3 -3
-12 -4 -19 -1 -8 3 -5 6 6 6 11 1 17 -2 13 -5z m-12 -64 c-3 -5 -12 -10 -20
-10 -8 0 -17 5 -20 10 -4 6 5 10 20 10 15 0 24 -4 20 -10z m-235 -10 c0 -5
-14 -10 -31 -10 -17 0 -28 4 -24 10 3 6 17 10 31 10 13 0 24 -4 24 -10z m-10
-50 c0 -5 -11 -10 -25 -10 -14 0 -25 5 -25 10 0 6 11 10 25 10 14 0 25 -4 25
-10z"/>
<path d="M7460 3945 l0 -85 -30 0 c-28 0 -30 -3 -30 -35 0 -33 2 -35 34 -35
l33 0 7 -207 c9 -256 8 -253 106 -253 l70 0 0 35 c0 35 0 35 -43 35 l-44 0 -6
107 c-4 58 -7 146 -7 194 l0 88 46 7 c43 6 45 8 42 38 -3 30 -5 31 -48 32
l-45 0 -3 82 -3 82 -39 0 -40 0 0 -85z m63 48 c-7 -2 -19 -2 -25 0 -7 3 -2 5
12 5 14 0 19 -2 13 -5z"/>
<path d="M8678 4013 c-10 -2 -18 -9 -18 -14 0 -5 -25 -9 -55 -9 -97 0 -155
-40 -155 -105 0 -55 70 -359 89 -385 29 -40 76 -51 152 -34 35 7 67 13 71 14
6 0 28 -88 28 -114 0 -9 -21 -19 -52 -26 -29 -6 -60 -14 -69 -16 -12 -3 -18 5
-23 31 -7 35 -9 36 -39 29 -18 -3 -35 -8 -38 -10 -12 -7 12 -89 32 -109 19
-20 20 -20 132 4 61 12 118 29 126 36 21 21 17 52 -57 395 -72 337 -69 328
-124 313z m47 -23 c-3 -5 -18 -10 -33 -9 -24 0 -25 1 -7 9 28 12 47 12 40 0z
m-14 -240 c21 -96 38 -180 39 -186 0 -15 -20 -23 -85 -30 -67 -8 -64 -14 -108
201 -28 139 -35 160 -50 157 -26 -5 -52 7 -41 18 6 6 22 6 41 1 17 -5 35 -5
39 -1 12 11 51 18 93 16 l34 -1 38 -175z m39 150 c0 -5 -4 -10 -10 -10 -5 0
-10 5 -10 10 0 6 5 10 10 10 6 0 10 -4 10 -10z m-247 -27 c-7 -2 -21 -2 -30 0
-10 3 -4 5 12 5 17 0 24 -2 18 -5z m250 -80 c-7 -2 -21 -2 -30 0 -10 3 -4 5
12 5 17 0 24 -2 18 -5z m50 -230 c-7 -2 -21 -2 -30 0 -10 3 -4 5 12 5 17 0 24
-2 18 -5z m10 -42 c4 -1 7 -5 7 -11 0 -12 -132 -13 -170 -2 -19 5 -9 8 40 12
56 5 77 5 123 1z m-200 -8 c-7 -2 -21 -2 -30 0 -10 3 -4 5 12 5 17 0 24 -2 18
-5z"/>
<path d="M8288 3943 c-10 -2 -18 -9 -18 -14 0 -10 66 -388 81 -467 11 -53 11
-53 42 -46 18 3 35 8 38 10 3 2 -15 119 -40 261 -50 276 -48 271 -103 256z
m59 -109 c-3 -3 -12 -4 -19 -1 -8 3 -5 6 6 6 11 1 17 -2 13 -5z m13 -54 c0
-13 -20 -13 -40 0 -12 8 -9 10 13 10 15 0 27 -4 27 -10z m13 -117 c-7 -2 -21
-2 -30 0 -10 3 -4 5 12 5 17 0 24 -2 18 -5z"/>
<path d="M5874 3932 c-18 -12 -31 -44 -38 -93 -6 -43 -5 -47 16 -53 47 -12 55
-8 61 35 3 22 7 42 9 44 1 1 34 -2 72 -7 l68 -11 -7 -71 c-4 -39 -8 -73 -11
-75 -2 -2 -47 2 -99 9 -130 17 -132 15 -153 -150 l-16 -123 23 -18 c19 -15 40
-19 111 -19 49 0 90 -4 92 -9 4 -12 78 -24 78 -13 0 5 13 106 30 223 33 239
36 282 17 298 -8 6 -62 17 -122 26 -125 17 -117 17 -131 7z m135 -292 c23 0
23 -1 17 -72 -11 -117 -7 -112 -89 -104 -39 4 -73 8 -75 11 -2 2 1 43 8 91
l12 86 52 -6 c28 -3 62 -6 75 -6z"/>
<path d="M7808 3886 c-130 -16 -125 -3 -99 -253 12 -114 24 -221 27 -236 10
-49 35 -56 158 -43 95 10 111 15 128 36 12 14 17 32 14 44 -3 12 -6 38 -6 59
0 37 0 37 -41 37 l-42 0 6 -49 6 -50 -42 -5 c-23 -3 -56 -7 -74 -9 l-32 -3 -6
55 c-3 31 -8 73 -11 94 -5 34 -4 37 18 37 70 2 172 20 185 33 14 13 14 30 4
123 -16 154 -15 153 -193 130z m-10 -33 c-10 -2 -28 -2 -40 0 -13 2 -5 4 17 4
22 1 32 -1 23 -4z m160 0 c-10 -2 -26 -2 -35 0 -10 3 -2 5 17 5 19 0 27 -2 18
-5z m-34 -94 c4 -39 5 -74 1 -77 -9 -9 -129 -20 -136 -13 -4 3 -10 38 -14 78
l-7 72 54 4 c29 2 63 4 74 5 19 2 22 -5 28 -69z m-164 57 c0 -3 -4 -8 -10 -11
-5 -3 -10 -1 -10 4 0 6 5 11 10 11 6 0 10 -2 10 -4z m0 -45 c0 -6 -4 -13 -10
-16 -5 -3 -10 1 -10 9 0 9 5 16 10 16 6 0 10 -4 10 -9z m220 -7 c0 -10 -7 -14
-22 -12 -32 5 -35 28 -4 28 17 0 26 -5 26 -16z m40 -304 c0 -5 -7 -10 -15 -10
-8 0 -15 5 -15 10 0 6 7 10 15 10 8 0 15 -4 15 -10z"/>
<path d="M6237 3859 c-12 -16 -17 -45 -17 -94 l-1 -70 102 -95 101 -95 -7 -48
-7 -48 -67 3 -66 3 0 60 0 60 -36 3 -36 3 -6 -73 c-10 -115 6 -126 196 -129
78 -2 96 12 97 71 0 19 3 52 7 73 6 38 5 40 -98 142 -103 102 -105 104 -101
144 4 40 5 41 42 41 21 0 52 -3 70 -6 32 -7 32 -7 26 -54 l-6 -47 37 -6 c20
-4 38 -5 39 -4 1 1 4 32 8 68 10 101 1 108 -145 116 -114 6 -116 5 -132 -18z
m261 -71 c-7 -20 -48 -23 -48 -4 0 11 9 16 26 16 16 0 24 -5 22 -12z"/>
<path d="M7040 3580 l0 -270 35 0 c41 0 36 -33 35 273 l-1 187 49 0 c27 0 64
3 81 6 l31 7 0 -237 0 -236 40 0 40 0 0 248 c0 292 0 292 -83 291 -29 0 -74
-4 -100 -8 -26 -4 -50 -4 -53 1 -3 4 -21 8 -40 8 l-34 0 0 -270z m55 250 c3
-5 -1 -10 -9 -10 -9 0 -16 5 -16 10 0 6 4 10 9 10 6 0 13 -4 16 -10z m131 -37
c-4 -5 -41 -8 -81 -8 -40 0 -71 3 -68 8 2 4 38 7 80 7 42 0 73 -3 69 -7z m81
-9 c-3 -3 -12 -4 -19 -1 -8 3 -5 6 6 6 11 1 17 -2 13 -5z"/>
</g>
</svg>
